<svg width="36" height="23" viewBox="0 0 36 23" fill="none" xmlns="http://www.w3.org/2000/svg">
<path fill-rule="evenodd" clip-rule="evenodd" d="M3.49097 0H6.88307L8.25864 1.83063L9.63422 0H32.509C34.4291 0 36 1.57094 36 3.49097V18.7367C36 20.6568 34.4291 22.2272 32.509 22.2272H9.63422L8.25864 20.3971L6.88307 22.2272H3.49097C1.57094 22.2272 0 20.6568 0 18.7367V3.49097C0 1.57094 1.57094 0 3.49097 0ZM28.3473 5.71658L15.8882 18.1757L14.2231 16.5111L26.6827 4.05198L28.3473 5.71658ZM19.8001 5.27618C21.0016 6.47768 21.0016 8.42657 19.8001 9.62854C18.6 10.8286 16.6478 10.8286 15.4478 9.62854C14.2496 8.42988 14.2496 6.47484 15.4478 5.27618C16.6478 4.07658 18.6 4.07658 19.8001 5.27618ZM18.4818 6.59452C18.0059 6.11865 17.2415 6.11865 16.7661 6.59452C15.6384 7.72175 17.3451 9.44737 18.4818 8.3102C18.9562 7.83623 18.9562 7.0685 18.4818 6.59452ZM27.1226 12.5992C28.3246 13.8011 28.3246 15.75 27.1226 16.9515C25.923 18.1516 23.9708 18.1516 22.7708 16.9515C21.5721 15.7529 21.5721 13.7978 22.7708 12.5992C23.9708 11.3991 25.923 11.3991 27.1226 12.5992ZM25.8048 13.9175C25.3289 13.4416 24.5645 13.4416 24.0886 13.9175C22.9614 15.0452 24.6681 16.7704 25.8048 15.6337C26.2792 15.1592 26.2792 14.3915 25.8048 13.9175ZM8.25959 9.92892C8.91379 9.92892 9.44453 10.4597 9.44453 11.1139C9.44453 11.7685 8.91379 12.2988 8.25959 12.2988C7.60491 12.2988 7.07417 11.7685 7.07417 11.1139C7.07417 10.4597 7.60491 9.92892 8.25959 9.92892ZM8.25959 13.7751C8.91379 13.7751 9.44453 14.3059 9.44453 14.9601C9.44453 15.6147 8.91379 16.145 8.25959 16.145C7.60491 16.145 7.07417 15.6147 7.07417 14.9601C7.07417 14.3059 7.60491 13.7751 8.25959 13.7751ZM8.25959 2.23602C8.91379 2.23602 9.44453 2.76676 9.44453 3.42096C9.44453 4.07563 8.91379 4.6059 8.25959 4.6059C7.60491 4.6059 7.07417 4.07563 7.07417 3.42096C7.07417 2.76676 7.60491 2.23602 8.25959 2.23602ZM8.25959 17.6218C8.91379 17.6218 9.44453 18.1521 9.44453 18.8068C9.44453 19.461 8.91379 19.9917 8.25959 19.9917C7.60491 19.9917 7.07417 19.461 7.07417 18.8068C7.07417 18.1521 7.60491 17.6218 8.25959 17.6218ZM8.25959 6.08223C8.91379 6.08223 9.44453 6.61297 9.44453 7.26764C9.44453 7.92184 8.91379 8.45259 8.25959 8.45259C7.60491 8.45259 7.07417 7.92184 7.07417 7.26764C7.07417 6.61297 7.60491 6.08223 8.25959 6.08223Z" fill="#ADADAD"/>
</svg>
