<svg width="30" height="27" viewBox="0 0 30 27" fill="none" xmlns="http://www.w3.org/2000/svg">
<path d="M12.0614 11.0156C12.2296 11.3802 12.5591 11.6974 12.914 11.9168C13.4821 12.2679 14.2127 12.4623 15.0133 12.4623C15.8138 12.4623 16.5455 12.2679 17.1136 11.9168C17.4675 11.698 17.791 11.38 17.9662 11.0156L21.1606 12.0764C21.5927 12.2204 21.9298 12.5606 22.0738 12.9927L23.5245 17.3387C23.5991 17.5624 23.4745 17.7846 23.2457 17.8418L20.7029 18.4762V16.0365C20.7041 15.7507 20.4735 15.5182 20.1877 15.5172C19.9005 15.5161 19.6663 15.7492 19.6675 16.0365V25.8641C19.6675 26.4415 19.2104 26.8996 18.633 26.8996H11.3936C10.8162 26.8996 10.3591 26.4415 10.3591 25.8641V16.0365C10.3603 15.7492 10.1271 15.5161 9.83987 15.5172C9.5541 15.5182 9.32352 15.7507 9.32465 16.0365V18.4762L6.78188 17.8418C6.55309 17.7846 6.42848 17.5624 6.50306 17.3387L7.95376 12.9927C8.09778 12.5606 8.43392 12.2204 8.866 12.0764L12.0614 11.0156Z" fill="#3A6FAC"/>
<path d="M0 5.6897H30V20.1714C30 20.1714 29.9938 20.5827 29.7969 20.9766C29.6 21.3705 29.2306 21.7252 28.4493 21.7252H20.6897V19.5431L23.484 18.844C24.2823 18.6444 24.7524 17.7921 24.4922 17.0114L23.0415 12.6654C22.7948 11.9253 22.2127 11.3432 21.4726 11.0965L17.7499 9.85591C17.4146 9.74509 17.069 9.99478 17.07 10.3479C17.07 10.5631 16.9257 10.8085 16.5578 11.0359C16.1899 11.2633 15.6278 11.4289 15 11.4289C14.3722 11.4289 13.8101 11.2633 13.4422 11.0359C13.0743 10.8085 12.931 10.5631 12.931 10.3479C12.932 9.99478 12.5864 9.74509 12.2511 9.85591L8.52438 11.0965C7.78426 11.3432 7.20623 11.9253 6.95952 12.6654L5.50781 17.0114C5.24758 17.7921 5.71766 18.6444 6.51603 18.844L9.31135 19.5451V21.7252H1.55374C0.791409 21.7252 0.403024 21.3705 0.206088 20.9766C0.00915284 20.5827 0 20.1714 0 20.1714V5.6897Z" fill="#3A6FAC"/>
<path d="M1.55374 0C0.760517 -1.55172e-07 0.403024 0.354713 0.206088 0.748585C0.00909223 1.14246 0 1.55374 0 1.55374V4.65921H30V1.55374C30 1.55374 29.9939 1.14246 29.7969 0.748585C29.6 0.354713 29.228 0 28.4493 0H1.55374ZM2.05482 1.55475C2.05924 1.55463 2.06351 1.55477 2.06796 1.55475H3.10244C3.3882 1.55363 3.62072 1.78421 3.6217 2.06998C3.62283 2.35723 3.38969 2.59037 3.10244 2.58924H2.06796C1.78219 2.58825 1.55161 2.35574 1.55273 2.06998C1.5537 1.79014 1.77669 1.56273 2.05482 1.55475ZM5.15928 1.55475C5.1637 1.55463 5.16797 1.55477 5.17241 1.55475H6.2069C6.49117 1.55573 6.72114 1.7857 6.72212 2.06998C6.72324 2.35574 6.49266 2.58825 6.2069 2.58924H5.17241C4.88665 2.58825 4.65607 2.35574 4.65719 2.06998C4.65816 1.79014 4.88115 1.56273 5.15928 1.55475ZM8.26273 1.55475C8.26717 1.55466 8.27241 1.55474 8.27687 1.55475H9.31135C9.59563 1.55573 9.8256 1.7857 9.82658 2.06998C9.8277 2.35574 9.59712 2.58825 9.31135 2.58924H8.27687C7.98961 2.59037 7.75547 2.35723 7.7566 2.06998C7.75757 1.78868 7.98311 1.56074 8.26273 1.55475Z" fill="#3A6FAC"/>
</svg>
