<svg width="37" height="40" viewBox="0 0 37 40" fill="none" xmlns="http://www.w3.org/2000/svg">
<path d="M26.3124 23.604C26.2941 23.1989 26.1202 22.8165 25.827 22.5364C25.5337 22.2563 25.1436 22.1002 24.7381 22.1006H12.002C11.5964 22.1002 11.2064 22.2563 10.9131 22.5364C10.6198 22.8165 10.4459 23.1989 10.4276 23.604L9.79006 37.1746C9.77938 37.3878 9.8122 37.601 9.88652 37.8012C9.96084 38.0014 10.0751 38.1844 10.2224 38.339C10.3696 38.4936 10.5468 38.6167 10.7431 38.7007C10.9395 38.7847 11.1508 38.8278 11.3644 38.8276H25.3757C25.5892 38.8278 25.8006 38.7847 25.9969 38.7007C26.1932 38.6167 26.3704 38.4936 26.5177 38.339C26.6649 38.1844 26.7792 38.0014 26.8535 37.8012C26.9278 37.601 26.9607 37.3878 26.95 37.1746L26.3124 23.604ZM23.0063 25.446C22.7974 26.5223 22.2205 27.4923 21.3745 28.1898C20.5286 28.8872 19.4664 29.2687 18.37 29.2687C17.2736 29.2687 16.2114 28.8872 15.3655 28.1898C14.5196 27.4923 13.9427 26.5223 13.7337 25.446C13.7166 25.3332 13.7242 25.218 13.756 25.1084C13.7878 24.9988 13.8431 24.8975 13.9179 24.8113C13.9928 24.7252 14.0855 24.6564 14.1896 24.6097C14.2937 24.563 14.4067 24.5395 14.5208 24.5408C14.7084 24.538 14.8907 24.6023 15.035 24.7221C15.1793 24.8419 15.2761 25.0093 15.308 25.1941C15.4562 25.9017 15.8435 26.5367 16.4046 26.9925C16.9658 27.4483 17.6667 27.6971 18.3897 27.6971C19.1126 27.6971 19.8136 27.4483 20.3747 26.9925C20.9359 26.5367 21.3231 25.9017 21.4714 25.1941C21.5033 25.0093 21.6001 24.8419 21.7444 24.7221C21.8887 24.6023 22.071 24.538 22.2585 24.5408C22.3693 24.545 22.4779 24.5727 22.5773 24.6218C22.6766 24.671 22.7645 24.7405 22.835 24.826C22.9056 24.9115 22.9574 25.0109 22.9869 25.1177C23.0164 25.2245 23.0231 25.3364 23.0063 25.446Z" fill="#ADADAD"/>
<path d="M25.3757 39.6146H11.3644C11.0441 39.615 10.7271 39.5502 10.4326 39.4242C10.1381 39.2982 9.87233 39.1137 9.65144 38.8817C9.43054 38.6498 9.25914 38.3753 9.14765 38.075C9.03617 37.7748 8.98694 37.455 9.00295 37.1351L9.64055 23.5645C9.66694 22.9562 9.92733 22.3815 10.3674 21.9605C10.8074 21.5395 11.393 21.3048 12.002 21.3054H24.7381C25.3471 21.3048 25.9327 21.5395 26.3728 21.9605C26.8128 22.3815 27.0732 22.9562 27.0996 23.5645L27.7372 37.1351C27.7532 37.455 27.704 37.7748 27.5925 38.075C27.481 38.3753 27.3096 38.6498 27.0887 38.8817C26.8678 39.1137 26.602 39.2982 26.3075 39.4242C26.0131 39.5502 25.696 39.615 25.3757 39.6146ZM12.002 22.8876C11.7932 22.8876 11.593 22.9705 11.4454 23.1181C11.2978 23.2658 11.2149 23.466 11.2149 23.6747L10.5773 37.2138C10.5719 37.3204 10.5883 37.427 10.6255 37.5271C10.6627 37.6272 10.7198 37.7187 10.7934 37.796C10.8671 37.8733 10.9556 37.9348 11.0538 37.9768C11.152 38.0188 11.2576 38.0404 11.3644 38.0403H25.3757C25.4825 38.0404 25.5882 38.0188 25.6863 37.9768C25.7845 37.9348 25.8731 37.8733 25.9467 37.796C26.0203 37.7187 26.0775 37.6272 26.1146 37.5271C26.1518 37.427 26.1682 37.3204 26.1629 37.2138L25.5253 23.6433C25.5253 23.4345 25.4423 23.2343 25.2947 23.0867C25.1471 22.939 24.9469 22.8561 24.7381 22.8561L12.002 22.8876Z" fill="#ADADAD"/>
<path d="M23.0933 22.1004H21.519V20.7229C21.519 19.8879 21.1873 19.087 20.5968 18.4965C20.0063 17.906 19.2054 17.5743 18.3704 17.5743C17.5353 17.5743 16.7345 17.906 16.144 18.4965C15.5535 19.087 15.2218 19.8879 15.2218 20.7229V22.1004H13.6475V20.7229C13.6475 19.4703 14.1451 18.269 15.0308 17.3833C15.9165 16.4976 17.1178 16 18.3704 16C19.623 16 20.8243 16.4976 21.71 17.3833C22.5957 18.269 23.0933 19.4703 23.0933 20.7229V22.1004Z" fill="#ADADAD"/>
<path d="M14.0942 8.5837C14.0709 9.4848 14.0258 11.1567 13.9903 12.4032C13.9873 12.5105 14.0105 12.6169 14.058 12.7132C14.1054 12.8095 14.1756 12.8928 14.2625 12.9558C14.3495 13.0188 14.4504 13.0596 14.5567 13.0748C14.663 13.0899 14.7714 13.0789 14.8724 13.0427L18.4679 11.7616L22.0718 13.0438C22.173 13.0798 22.2814 13.0906 22.3876 13.0753C22.4939 13.0599 22.5948 13.0189 22.6817 12.9558C22.7685 12.8927 22.8387 12.8094 22.8861 12.7131C22.9335 12.6168 22.9567 12.5104 22.9537 12.4031L22.8482 8.5837L25.1748 5.55549C25.2404 5.47073 25.2843 5.37126 25.3028 5.26568C25.3213 5.16011 25.3137 5.05162 25.2808 4.94962C25.2478 4.84763 25.1905 4.7552 25.1138 4.68036C25.0371 4.60551 24.9433 4.55051 24.8405 4.52011C23.6405 4.16643 22.0538 3.69761 21.1767 3.43697L19.0131 0.286638C18.9524 0.198199 18.871 0.125883 18.7761 0.0759413C18.6811 0.0259998 18.5754 -6.49305e-05 18.4681 1.21468e-07C18.3609 6.51734e-05 18.2552 0.0262581 18.1603 0.0763148C18.0654 0.126371 17.9841 0.198786 17.9235 0.287298L15.7657 3.43697L12.0988 4.51856C11.9958 4.54893 11.9018 4.60392 11.8249 4.67879C11.7479 4.75366 11.6904 4.84615 11.6573 4.94825C11.6241 5.05035 11.6164 5.15899 11.6347 5.26476C11.6529 5.37054 11.6967 5.47027 11.7622 5.55532L14.0942 8.5837Z" fill="#ADADAD"/>
<path d="M36.5269 8.95288C35.6691 8.70017 34.5504 8.37071 34.1721 8.25998L32.7873 6.23502C32.7267 6.1464 32.6454 6.07388 32.5505 6.02374C32.4555 5.9736 32.3498 5.94735 32.2424 5.94727C32.1351 5.94718 32.0293 5.97325 31.9343 6.02324C31.8393 6.07322 31.7579 6.14561 31.6971 6.23413L30.3071 8.26001L27.956 8.95202C27.853 8.98235 27.7589 9.03734 27.6819 9.11223C27.605 9.18712 27.5474 9.27964 27.5142 9.3818C27.4811 9.48395 27.4733 9.59265 27.4916 9.69848C27.5099 9.80431 27.5538 9.90408 27.6193 9.98914L29.1178 11.9334C29.1016 12.4947 29.0715 13.5314 29.0467 14.3868C29.0436 14.4941 29.0668 14.6004 29.1142 14.6967C29.1615 14.793 29.2316 14.8763 29.3185 14.9393C29.4053 15.0024 29.5061 15.0433 29.6123 15.0586C29.7186 15.0738 29.8269 15.0629 29.9279 15.0269L32.2429 14.2062L34.5527 15.0267C34.6538 15.0626 34.7622 15.0734 34.8683 15.058C34.9745 15.0427 35.0754 15.0017 35.1622 14.9387C35.249 14.8756 35.3191 14.7924 35.3666 14.6961C35.414 14.5999 35.4372 14.4935 35.4343 14.3863L35.3679 11.9334L36.8621 9.98861C36.9276 9.90375 36.9715 9.80419 36.9899 9.69855C37.0083 9.59291 37.0006 9.48438 36.9676 9.38237C36.9346 9.28035 36.8772 9.18792 36.8004 9.11308C36.7236 9.03825 36.6298 8.98326 36.5269 8.95288Z" fill="#ADADAD"/>
<path d="M8.12835 10.5393L9.3606 8.42081C9.4148 8.32817 9.44557 8.2237 9.45025 8.11646C9.45492 8.00923 9.43334 7.90248 9.3874 7.80547C9.34146 7.70847 9.27254 7.62414 9.18662 7.55981C9.1007 7.49548 9.00038 7.45309 8.89436 7.43632C8.01077 7.29719 6.85977 7.11549 6.47003 7.05093C6.07791 6.61171 5.3998 5.85296 4.83308 5.21905C4.76173 5.13891 4.67191 5.07739 4.57141 5.03981C4.47091 5.00224 4.36276 4.98975 4.25633 5.00343C4.14991 5.01711 4.04843 5.05654 3.9607 5.11831C3.87297 5.18007 3.80162 5.26231 3.75286 5.35789C3.34054 6.1667 2.78152 7.26497 2.63807 7.54642L0.393657 8.53811C0.295541 8.58147 0.209456 8.64806 0.14284 8.73213C0.0762253 8.81621 0.0310837 8.91524 0.0113158 9.02068C-0.00845217 9.12611 -0.00225197 9.23476 0.0293811 9.33726C0.0610141 9.43976 0.117128 9.53302 0.192875 9.60897L1.92453 11.3454C1.97481 11.866 2.08494 12.9317 2.1747 13.793C2.1859 13.8995 2.22289 14.0018 2.28248 14.0908C2.34207 14.1799 2.42246 14.2531 2.51671 14.3041C2.61095 14.3551 2.7162 14.3824 2.82336 14.3836C2.93051 14.3848 3.03634 14.3599 3.1317 14.311L5.32045 13.1953L7.71587 13.7123C7.82072 13.7349 7.9295 13.7317 8.03282 13.7029C8.13614 13.674 8.23089 13.6205 8.30888 13.5468C8.38687 13.4732 8.44576 13.3817 8.48046 13.2802C8.51516 13.1787 8.52462 13.0703 8.50803 12.9643L8.12835 10.5393Z" fill="#ADADAD"/>
</svg>
