<svg width="37" height="23" viewBox="0 0 37 23" fill="none" xmlns="http://www.w3.org/2000/svg">
<path fill-rule="evenodd" clip-rule="evenodd" d="M11.503 0C8.81041 0 6.59961 2.1909 6.59961 4.87482C6.59961 7.55878 8.81041 9.74966 11.503 9.74966C14.211 9.74966 16.4254 7.55873 16.4254 4.87482C16.4254 2.1909 14.211 0 11.503 0Z" fill="#3A6FAC"/>
<path fill-rule="evenodd" clip-rule="evenodd" d="M11.5058 14.668C13.8451 14.668 16.1837 15.0105 18.1183 15.6836C18.1185 15.6836 18.1187 15.6836 18.1188 15.6836C19.6309 16.2087 20.8895 16.9298 21.7335 17.7826C22.5775 18.6354 23.0252 19.5813 23.0252 20.7539V22.6258H0V20.7539C0 19.4099 0.582962 18.3509 1.67354 17.4203C2.7641 16.4898 4.37375 15.7505 6.2367 15.2808C7.86676 14.8698 9.68645 14.6665 11.5058 14.668Z" fill="#3A6FAC"/>
<path fill-rule="evenodd" clip-rule="evenodd" d="M24.9878 14.6775C26.7781 14.6987 28.5582 14.9182 30.1477 15.3369C31.9643 15.8154 33.5254 16.5526 34.5816 17.4724C35.6378 18.3921 36.2015 19.4345 36.2015 20.7533V22.6253H24.8355V20.7533C24.8355 19.0904 24.1313 17.6311 23.0206 16.5088C22.435 15.9171 21.7405 15.4093 20.9668 14.9741C22.2607 14.7621 23.6262 14.6612 24.9878 14.6775Z" fill="#3A6FAC"/>
<path fill-rule="evenodd" clip-rule="evenodd" d="M24.6978 0C22.0052 0 19.7949 2.1909 19.7949 4.87482C19.7949 7.55873 22.0052 9.74966 24.6978 9.74966C27.3904 9.74966 29.6007 7.55878 29.6007 4.87482C29.6007 2.1909 27.3904 0 24.6978 0Z" fill="#3A6FAC"/>
</svg>
