<svg width="26" height="26" viewBox="0 0 26 26" fill="none" xmlns="http://www.w3.org/2000/svg">
<path d="M23 0H7C5.3457 0 4 1.3457 4 3V4H3C1.3457 4 0 5.3457 0 7V23C0 24.6543 1.3457 26 3 26H19C20.6543 26 22 24.6543 22 23V22H23C24.6543 22 26 20.6543 26 19V3C26 1.3457 24.6543 0 23 0ZM18 21.5C18 21.7761 17.7761 22 17.5 22H4.5C4.2239 22 4 21.7761 4 21.5V20.5C4 20.2239 4.2239 20 4.5 20H17.5C17.7761 20 18 20.2239 18 20.5V21.5ZM18 17.5C18 17.7761 17.7761 18 17.5 18H4.5C4.2239 18 4 17.7761 4 17.5V16.5C4 16.2239 4.2239 16 4.5 16H17.5C17.7761 16 18 16.2239 18 16.5V17.5ZM18 13.5C18 13.7761 17.7761 14 17.5 14H4.5C4.2239 14 4 13.7761 4 13.5V12.5C4 12.2239 4.2239 12 4.5 12H17.5C17.7761 12 18 12.2239 18 12.5V13.5ZM18 9.5C18 9.7761 17.7761 10 17.5 10H4.5C4.2239 10 4 9.7761 4 9.5V8.5C4 8.2239 4.2239 8 4.5 8H17.5C17.7761 8 18 8.2239 18 8.5V9.5ZM24 19C24 19.5513 23.5513 20 23 20H22V7C22 5.3457 20.6543 4 19 4H6V3C6 2.4487 6.4487 2 7 2H23C23.5513 2 24 2.4487 24 3V19Z" fill="#ADADAD"/>
</svg>
