<svg width="26" height="26" viewBox="0 0 26 26" fill="none" xmlns="http://www.w3.org/2000/svg">
<path d="M8.79934 0H3.53307C1.56655 0 0 1.56655 0 3.53307V8.83267C0 10.7659 1.56655 12.3324 3.53307 12.3324H8.83267C10.7659 12.3324 12.3324 10.7659 12.3324 8.79934V3.53307C12.3324 1.56655 10.7659 0 8.79934 0Z" fill="#3A6FAC"/>
<path d="M17.1991 12.3324H22.4987C24.4319 12.3324 25.9984 10.7659 25.9984 8.79934V3.53307C25.9984 1.56655 24.4319 0 22.4654 0H17.1991C15.2326 0 13.666 1.56655 13.666 3.53307V8.83267C13.666 10.7659 15.2326 12.3324 17.1991 12.3324Z" fill="#3A6FAC"/>
<path d="M8.79934 13.666H3.53307C1.56655 13.666 0 15.2326 0 17.1991V22.4987C0 24.4319 1.56655 25.9984 3.53307 25.9984H8.83267C10.7659 25.9984 12.3324 24.4319 12.3324 22.4654V17.1991C12.3324 15.2326 10.7659 13.666 8.79934 13.666Z" fill="#3A6FAC"/>
<path d="M19.8322 25.9984C23.2377 25.9984 25.9984 23.2377 25.9984 19.8322C25.9984 16.4267 23.2377 13.666 19.8322 13.666C16.4267 13.666 13.666 16.4267 13.666 19.8322C13.666 23.2377 16.4267 25.9984 19.8322 25.9984Z" fill="#3A6FAC"/>
</svg>
