<svg width="26" height="26" viewBox="0 0 26 26" fill="none" xmlns="http://www.w3.org/2000/svg">
<path d="M8.79934 0H3.53307C1.56655 0 0 1.56655 0 3.53307V8.83267C0 10.7659 1.56655 12.3324 3.53307 12.3324H8.83267C10.7659 12.3324 12.3324 10.7659 12.3324 8.79934V3.53307C12.3324 1.56655 10.7659 0 8.79934 0Z" fill="#ADADAD"/>
<path d="M17.1981 12.3324H22.4977C24.4309 12.3324 25.9974 10.7659 25.9974 8.79934V3.53307C25.9974 1.56655 24.4309 0 22.4644 0H17.1981C15.2316 0 13.665 1.56655 13.665 3.53307V8.83267C13.665 10.7659 15.2316 12.3324 17.1981 12.3324Z" fill="#ADADAD"/>
<path d="M8.79934 13.6653H3.53307C1.56655 13.6653 0 15.2318 0 17.1984V22.498C0 24.4311 1.56655 25.9977 3.53307 25.9977H8.83267C10.7659 25.9977 12.3324 24.4311 12.3324 22.4646V17.1984C12.3324 15.2318 10.7659 13.6653 8.79934 13.6653Z" fill="#ADADAD"/>
<path d="M19.8312 25.9977C23.2367 25.9977 25.9974 23.237 25.9974 19.8315C25.9974 16.426 23.2367 13.6653 19.8312 13.6653C16.4257 13.6653 13.665 16.426 13.665 19.8315C13.665 23.237 16.4257 25.9977 19.8312 25.9977Z" fill="#ADADAD"/>
</svg>
