<svg width="28" height="32" viewBox="0 0 28 32" fill="none" xmlns="http://www.w3.org/2000/svg">
<path d="M18.3352 27.7643L24.8398 21.2597L25.1891 21.7836C25.6693 22.4821 25.451 23.4425 24.7962 23.879L14.5808 30.8202C13.8824 31.3004 12.9219 31.0821 12.4854 30.4273L0.218276 12.1794C0.130966 12.0048 0.0436552 11.8738 0 11.6992L16.1088 27.7643C16.72 28.4192 17.724 28.4192 18.3352 27.7643Z" fill="#3A6FAC"/>
<path d="M10.259 0H1.52793C0.698484 0 0 0.698484 0 1.52793V10.259C0 10.6519 0.174621 11.0448 0.436552 11.3504L16.0215 26.8916C16.6326 27.5028 17.5931 27.5028 18.1606 26.8916L26.8916 18.1606C27.5028 17.5494 27.5028 16.589 26.8916 16.0215L11.3067 0.436552C11.0448 0.174621 10.6519 0 10.259 0ZM3.14318 4.93304C2.96855 3.88532 3.88531 3.01221 4.93304 3.14318C5.58787 3.23049 6.11173 3.798 6.2427 4.45283C6.41732 5.50056 5.50056 6.37366 4.45283 6.2427C3.75435 6.11173 3.23049 5.58787 3.14318 4.93304Z" fill="#3A6FAC"/>
</svg>
