<svg width="37" height="24" viewBox="0 0 37 24" fill="none" xmlns="http://www.w3.org/2000/svg">
<path fill-rule="evenodd" clip-rule="evenodd" d="M12.3018 0.749268C9.60924 0.749268 7.39844 2.94017 7.39844 5.62408C7.39844 8.30804 9.60924 10.4989 12.3018 10.4989C15.0098 10.4989 17.2242 8.308 17.2242 5.62408C17.2242 2.94017 15.0098 0.749268 12.3018 0.749268Z" fill="#ADADAD"/>
<path fill-rule="evenodd" clip-rule="evenodd" d="M12.3047 15.4172C14.6439 15.4172 16.9826 15.7598 18.9172 16.4329C18.9173 16.4329 18.9175 16.4329 18.9177 16.4329C20.4297 16.9579 21.6883 17.6791 22.5323 18.5319C23.3763 19.3847 23.824 20.3305 23.824 21.5031V23.3751H0.798828V21.5031C0.798828 20.1592 1.38179 19.1001 2.47237 18.1696C3.56293 17.2391 5.17258 16.4997 7.03553 16.03C8.66558 15.6191 10.4853 15.4158 12.3047 15.4172Z" fill="#ADADAD"/>
<path fill-rule="evenodd" clip-rule="evenodd" d="M25.7861 15.4275C27.5764 15.4487 29.3565 15.6682 30.9461 16.0869C32.7626 16.5654 34.3238 17.3026 35.3799 18.2224C36.4361 19.1421 36.9999 20.1845 36.9999 21.5033V23.3753H25.6338V21.5033C25.6338 19.8404 24.9297 18.3811 23.819 17.2588C23.2334 16.6671 22.5388 16.1593 21.7651 15.7241C23.059 15.5121 24.4246 15.4112 25.7861 15.4275Z" fill="#ADADAD"/>
<path fill-rule="evenodd" clip-rule="evenodd" d="M25.4976 0.749268C22.805 0.749268 20.5947 2.94017 20.5947 5.62408C20.5947 8.308 22.805 10.4989 25.4976 10.4989C28.1902 10.4989 30.4005 8.30804 30.4005 5.62408C30.4005 2.94017 28.1902 0.749268 25.4976 0.749268Z" fill="#ADADAD"/>
</svg>
