<svg width="26" height="26" viewBox="0 0 26 26" fill="none" xmlns="http://www.w3.org/2000/svg">
<rect opacity="0.21" width="25.5737" height="25.3576" rx="12.6788" fill="#007FFF"/>
<path d="M15.3266 11.9835C14.6729 11.6536 13.9781 11.4022 13.29 11.1414C12.8898 10.9997 12.5134 10.8071 12.1719 10.5695C11.508 10.0856 11.6353 9.30001 12.4128 8.98881C12.6307 8.90881 12.8626 8.86518 13.0974 8.85997C13.9846 8.81143 14.8705 8.97156 15.6706 9.32505C16.0766 9.50417 16.2107 9.44758 16.3483 9.06111C16.4928 8.65268 16.6132 8.23783 16.7474 7.82621C16.8368 7.5497 16.7268 7.36745 16.4413 7.25118C15.9233 7.0398 15.3775 6.89086 14.8175 6.80811C14.0813 6.70441 14.0813 6.70128 14.0778 6.02567C14.0743 5.07366 14.0743 5.07366 13.0285 5.07366C12.8771 5.07366 12.7258 5.07053 12.5744 5.07366C12.0859 5.08623 12.0033 5.16479 11.9895 5.61411C11.9827 5.8152 11.9895 6.01634 11.9861 6.22055C11.9827 6.8176 11.9793 6.80816 11.3531 7.01556C9.83941 7.5183 8.90369 8.46098 8.80374 9.96931C8.71431 11.3048 9.47802 12.2066 10.6787 12.8633C11.4183 13.2687 12.2371 13.5075 13.0214 13.8248C13.3283 13.9398 13.6156 14.0943 13.8746 14.2836C14.6281 14.8523 14.4902 15.7982 13.5959 16.1564C13.1222 16.341 12.6021 16.4029 12.0925 16.3355C11.2939 16.2541 10.5179 16.0422 9.80131 15.7102C9.37814 15.5091 9.25433 15.5625 9.10984 15.9807C8.98598 16.3421 8.87593 16.7066 8.76582 17.0711C8.61791 17.5612 8.67291 17.6775 9.18551 17.9069C9.83917 18.196 10.5375 18.3437 11.2496 18.4474C11.8071 18.5291 11.8241 18.5511 11.8311 19.079C11.8345 19.3176 11.8345 19.5597 11.8379 19.7985C11.8413 20.1002 11.9996 20.2759 12.3402 20.2824C12.7255 20.2887 13.1142 20.2887 13.4995 20.2793C13.816 20.2731 13.9777 20.1159 13.9777 19.8237C13.9777 19.4969 13.9951 19.1669 13.9811 18.8402C13.9637 18.5071 14.1222 18.3374 14.4731 18.2494C15.2692 18.0593 15.9788 17.6433 16.4997 17.0614C17.9722 15.4274 17.4114 13.0361 15.3266 11.9835Z" fill="#007FFF"/>
</svg>
