<svg width="27" height="26" viewBox="0 0 27 26" fill="none" xmlns="http://www.w3.org/2000/svg">
<rect opacity="0.21" x="0.722656" width="25.5737" height="25.3576" rx="12.6788" fill="#FF8F8F"/>
<path d="M13.511 19.2716C13.6396 19.2716 13.7485 19.228 13.8375 19.1408L18.4682 14.768C18.5177 14.7292 18.5857 14.6663 18.6723 14.5791C18.7588 14.492 18.8961 14.3334 19.0841 14.1033C19.2721 13.8733 19.4403 13.6372 19.5887 13.3951C19.7372 13.153 19.8695 12.86 19.9858 12.5162C20.102 12.1723 20.1602 11.8382 20.1602 11.5138C20.1602 10.4484 19.846 9.61546 19.2177 9.01498C18.5894 8.4145 17.7211 8.11426 16.6129 8.11426C16.3062 8.11426 15.9933 8.16632 15.6742 8.27043C15.3551 8.37455 15.0583 8.51498 14.7837 8.69174C14.5091 8.86849 14.2729 9.03435 14.075 9.18931C13.8771 9.34428 13.6891 9.50892 13.511 9.68326C13.3329 9.50892 13.1449 9.34428 12.947 9.18931C12.7491 9.03435 12.5129 8.86849 12.2383 8.69174C11.9637 8.51498 11.6669 8.37455 11.3478 8.27043C11.0287 8.16632 10.7158 8.11426 10.409 8.11426C9.30083 8.11426 8.43258 8.4145 7.80427 9.01498C7.17596 9.61546 6.86181 10.4484 6.86181 11.5138C6.86181 12.584 7.42828 13.6736 8.56121 14.7825L13.1845 19.1408C13.2735 19.228 13.3824 19.2716 13.511 19.2716Z" fill="#FF8F8F"/>
</svg>
