<svg width="12" height="11" viewBox="0 0 12 11" fill="none" xmlns="http://www.w3.org/2000/svg">
<path d="M4.96457 0.927052C5.26392 0.00574112 6.56733 0.0057404 6.86668 0.927051L7.46828 2.77858C7.60216 3.1906 7.98611 3.46956 8.41934 3.46956H10.3662C11.3349 3.46956 11.7377 4.70918 10.9539 5.27858L9.37893 6.42289C9.02845 6.67753 8.88179 7.1289 9.01566 7.54092L9.61726 9.39245C9.91661 10.3138 8.86213 11.0799 8.07842 10.5105L6.50341 9.36618C6.15292 9.11154 5.67833 9.11154 5.32784 9.36618L3.75284 10.5105C2.96912 11.0799 1.91464 10.3138 2.21399 9.39245L2.81559 7.54092C2.94947 7.1289 2.80281 6.67753 2.45232 6.42289L0.877317 5.27858C0.0936031 4.70918 0.496378 3.46956 1.4651 3.46956H3.41192C3.84514 3.46956 4.2291 3.1906 4.36297 2.77858L4.96457 0.927052Z" fill="#FFB803"/>
</svg>
