<svg width="38" height="50" viewBox="0 0 38 50" fill="none" xmlns="http://www.w3.org/2000/svg">
<path d="M0 0H38V50L19 41.9811L0 50V0Z" fill="#FC4762"/>
<path d="M12.6777 34.9668C12.11 34.9668 11.5866 34.821 11.1074 34.5293C10.6335 34.2376 10.2507 33.8496 9.95898 33.3652C9.67253 32.8757 9.5293 32.3392 9.5293 31.7559L9.54492 26.6855C9.54492 26.0918 9.68815 25.5579 9.97461 25.084C10.2559 24.6048 10.6361 24.222 11.1152 23.9355C11.5944 23.6439 12.1152 23.498 12.6777 23.498C13.2611 23.498 13.7845 23.6413 14.248 23.9277C14.7168 24.2142 15.0918 24.5996 15.373 25.084C15.6595 25.5632 15.8027 26.097 15.8027 26.6855L15.8184 31.7559C15.8184 32.3392 15.6777 32.873 15.3965 33.3574C15.11 33.847 14.7298 34.2376 14.2559 34.5293C13.7819 34.821 13.2559 34.9668 12.6777 34.9668ZM12.6777 33.0371C13.0007 33.0371 13.2819 32.9069 13.5215 32.6465C13.7611 32.3809 13.8809 32.084 13.8809 31.7559L13.8652 26.6855C13.8652 26.3314 13.7533 26.0319 13.5293 25.7871C13.3053 25.5423 13.0215 25.4199 12.6777 25.4199C12.3496 25.4199 12.0684 25.5397 11.834 25.7793C11.5996 26.0189 11.4824 26.321 11.4824 26.6855V31.7559C11.4824 32.1048 11.5996 32.4069 11.834 32.6621C12.0684 32.9121 12.3496 33.0371 12.6777 33.0371ZM18.9043 34.8105H17.1074C17.0553 34.8105 17.0293 34.7845 17.0293 34.7324L17.0605 23.7402C17.0605 23.6986 17.0814 23.6777 17.123 23.6777H22.248C22.3001 23.6777 22.3262 23.6986 22.3262 23.7402V25.5449C22.3262 25.5866 22.3053 25.6074 22.2637 25.6074H18.9824V28.0918H22.2637C22.3053 28.0918 22.3262 28.1178 22.3262 28.1699L22.3418 29.9824C22.3418 30.0241 22.3158 30.0449 22.2637 30.0449H18.9824V34.7324C18.9824 34.7845 18.9564 34.8105 18.9043 34.8105ZM25.6387 34.8105H23.8418C23.7897 34.8105 23.7637 34.7845 23.7637 34.7324L23.7949 23.7402C23.7949 23.6986 23.8158 23.6777 23.8574 23.6777H28.9824C29.0345 23.6777 29.0605 23.6986 29.0605 23.7402V25.5449C29.0605 25.5866 29.0397 25.6074 28.998 25.6074H25.7168V28.0918H28.998C29.0397 28.0918 29.0605 28.1178 29.0605 28.1699L29.0762 29.9824C29.0762 30.0241 29.0501 30.0449 28.998 30.0449H25.7168V34.7324C25.7168 34.7845 25.6908 34.8105 25.6387 34.8105Z" fill="white"/>
<path d="M9.46133 19.8398C8.90404 19.8398 8.38581 19.6914 7.90664 19.3945C7.43268 19.1029 7.05247 18.7122 6.76602 18.2227C6.48477 17.7279 6.34414 17.1888 6.34414 16.6055V15.8867C6.34414 15.8294 6.36497 15.8008 6.40664 15.8008H8.20352C8.2556 15.8008 8.28164 15.8294 8.28164 15.8867V16.6055C8.28164 16.9544 8.39362 17.2565 8.61758 17.5117C8.84154 17.7617 9.12279 17.8867 9.46133 17.8867C9.83633 17.8867 10.1306 17.7565 10.3441 17.4961C10.5577 17.2305 10.6645 16.9336 10.6645 16.6055V16.1758C10.6645 15.8424 10.5603 15.543 10.352 15.2773C10.1436 15.0117 9.8806 14.8789 9.56289 14.8789H8.93789C8.88581 14.8789 8.85977 14.8503 8.85977 14.793L8.87539 13.0039C8.87539 12.9622 8.89622 12.9414 8.93789 12.9414H9.56289C9.84935 12.9414 10.1046 12.8294 10.3285 12.6055C10.5525 12.3815 10.6645 12.0872 10.6645 11.7227V11.5039C10.6645 11.1602 10.5499 10.8685 10.3207 10.6289C10.0915 10.3893 9.80508 10.2695 9.46133 10.2695C9.1332 10.2695 8.85456 10.3893 8.62539 10.6289C8.39622 10.8685 8.28164 11.1602 8.28164 11.5039V12.2695C8.28164 12.3216 8.26081 12.3477 8.21914 12.3477H6.42227C6.3806 12.3477 6.35977 12.3216 6.35977 12.2695V11.418C6.35977 10.8346 6.5082 10.3138 6.80508 9.85547C7.09675 9.39714 7.47956 9.03255 7.95352 8.76172C8.42747 8.48568 8.93008 8.34766 9.46133 8.34766C10.0395 8.34766 10.5655 8.48828 11.0395 8.76953C11.5134 9.05599 11.8884 9.43359 12.1645 9.90234C12.4457 10.3711 12.5863 10.8867 12.5863 11.4492V11.707C12.5863 12.1758 12.5082 12.582 12.352 12.9258C12.1957 13.2643 11.9796 13.5898 11.7035 13.9023C11.9796 14.2201 12.1983 14.569 12.3598 14.9492C12.5212 15.3294 12.602 15.7201 12.602 16.1211V16.6055C12.602 17.1992 12.4613 17.7435 12.1801 18.2383C11.8936 18.7279 11.5134 19.1185 11.0395 19.4102C10.5655 19.6966 10.0395 19.8398 9.46133 19.8398ZM17.0395 19.8164C16.3624 19.8164 15.7608 19.6706 15.2348 19.3789C14.7139 19.0872 14.3051 18.6992 14.0082 18.2148C13.7165 17.7253 13.5707 17.1888 13.5707 16.6055L13.5863 11.5352C13.5863 10.9414 13.7348 10.4076 14.0316 9.93359C14.3233 9.45443 14.7296 9.07161 15.2504 8.78516C15.7712 8.49349 16.3676 8.34766 17.0395 8.34766C17.727 8.34766 18.3259 8.49089 18.8363 8.77734C19.3467 9.0638 19.7478 9.44922 20.0395 9.93359C20.3363 10.4128 20.4848 10.9466 20.4848 11.5352L20.5004 16.6055C20.5004 17.1836 20.3546 17.7174 20.0629 18.207C19.766 18.6966 19.3572 19.0872 18.8363 19.3789C18.3207 19.6706 17.7217 19.8164 17.0395 19.8164ZM18.5629 16.6055L18.5473 11.5352C18.5473 11.1602 18.4066 10.8555 18.1254 10.6211C17.8493 10.3867 17.4874 10.2695 17.0395 10.2695C16.5811 10.2695 16.2139 10.3867 15.9379 10.6211C15.6618 10.8555 15.5238 11.1602 15.5238 11.5352V16.6055C15.5238 17.0013 15.6618 17.3138 15.9379 17.543C16.2139 17.7721 16.5811 17.8867 17.0395 17.8867C17.4874 17.8867 17.852 17.7721 18.1332 17.543C18.4197 17.3138 18.5629 17.0013 18.5629 16.6055ZM23.391 13.6914C23.016 13.6914 22.6749 13.5951 22.3676 13.4023C22.0499 13.2096 21.7973 12.9544 21.6098 12.6367C21.4223 12.3138 21.3285 11.9674 21.3285 11.5977V10.457C21.3285 10.0716 21.4223 9.72005 21.6098 9.40234C21.7973 9.07943 22.0473 8.82682 22.3598 8.64453C22.6775 8.45703 23.0212 8.36328 23.391 8.36328C23.7764 8.36328 24.1254 8.45703 24.4379 8.64453C24.7452 8.83203 24.9874 9.08724 25.1645 9.41016C25.3467 9.72786 25.4379 10.0768 25.4379 10.457V11.5977C25.4379 11.9779 25.3467 12.3268 25.1645 12.6445C24.977 12.957 24.727 13.2096 24.4145 13.4023C24.1072 13.5951 23.766 13.6914 23.391 13.6914ZM24.1098 19.6602H22.2426C22.1905 19.6602 22.1749 19.6341 22.1957 19.582L28.5785 8.58984C28.6098 8.54818 28.641 8.52734 28.6723 8.52734H30.5316C30.5889 8.52734 30.6046 8.54818 30.5785 8.58984L24.2113 19.582C24.1905 19.6341 24.1566 19.6602 24.1098 19.6602ZM23.3598 12.3945C23.5733 12.3945 23.7478 12.319 23.8832 12.168C24.0238 12.0117 24.0941 11.8216 24.0941 11.5977V10.4883C24.0941 10.2799 24.0238 10.0977 23.8832 9.94141C23.7478 9.78516 23.5733 9.70703 23.3598 9.70703C23.1462 9.70703 22.9665 9.78516 22.8207 9.94141C22.6801 10.0977 22.6098 10.2799 22.6098 10.4883V11.5977C22.6098 11.8112 22.6827 11.9987 22.8285 12.1602C22.9796 12.3164 23.1566 12.3945 23.3598 12.3945ZM29.5551 19.8164C29.1749 19.8164 28.8311 19.7201 28.5238 19.5273C28.2061 19.3398 27.9535 19.0872 27.766 18.7695C27.5785 18.4466 27.4848 18.0977 27.4848 17.7227V16.5898C27.4848 16.1992 27.5785 15.8451 27.766 15.5273C27.9535 15.2044 28.2035 14.9518 28.516 14.7695C28.8337 14.582 29.1801 14.4883 29.5551 14.4883C29.9353 14.4883 30.2816 14.582 30.5941 14.7695C30.9014 14.957 31.1462 15.2122 31.3285 15.5352C31.5108 15.8529 31.602 16.2044 31.602 16.5898V17.7227C31.602 18.1081 31.5082 18.457 31.3207 18.7695C31.1332 19.0872 30.8832 19.3424 30.5707 19.5352C30.2634 19.7227 29.9249 19.8164 29.5551 19.8164ZM29.5395 18.5273C29.753 18.5273 29.9275 18.4492 30.0629 18.293C30.2035 18.1367 30.2738 17.9466 30.2738 17.7227V16.6211C30.2738 16.4076 30.2035 16.2253 30.0629 16.0742C29.9275 15.918 29.753 15.8398 29.5395 15.8398C29.3259 15.8398 29.1462 15.918 29.0004 16.0742C28.8546 16.2253 28.7816 16.4076 28.7816 16.6211V17.7227C28.7816 17.9362 28.8572 18.1237 29.0082 18.2852C29.1592 18.4466 29.3363 18.5273 29.5395 18.5273Z" fill="white"/>
</svg>
