<svg width="26" height="26" viewBox="0 0 26 26" fill="none" xmlns="http://www.w3.org/2000/svg">
<rect opacity="0.21" width="25.5737" height="25.3576" rx="12.6788" fill="#6ABE45"/>
<path d="M7.25361 8.72998C6.19958 10.1495 5.625 11.9251 5.625 13.7995C5.625 13.8291 5.62939 13.8575 5.63704 13.8846C5.6963 13.282 5.97418 12.7435 6.38902 12.3502C6.59929 11.1668 7.06181 10.0868 7.70944 9.18697C7.51388 9.08598 7.35698 8.92595 7.25361 8.72998ZM19.6156 13.8846C19.6233 13.8575 19.6277 13.829 19.6277 13.7995C19.6277 11.9252 19.0531 10.1496 17.9991 8.73004C17.8958 8.92604 17.7389 9.08608 17.5434 9.18709C18.191 10.0869 18.6534 11.1668 18.8637 12.3502C19.2785 12.7435 19.5564 13.282 19.6156 13.8846Z" fill="#6ABE45"/>
<path d="M17.9807 8.74136C18.0695 8.57193 18.1189 8.37608 18.1189 8.16843C18.1189 7.85301 17.9999 7.54952 17.7924 7.33578C16.3804 5.88135 14.5528 5.0775 12.6461 5.0723C12.6399 5.0723 12.634 5.07227 12.6278 5.07227C10.7101 5.07227 8.87541 5.8759 7.46035 7.33645C7.35544 7.44495 7.27379 7.57397 7.21778 7.71952C7.16269 7.86208 7.13477 8.01309 7.13477 8.16834C7.13477 8.37602 7.18421 8.5719 7.27299 8.74133C7.37603 8.93797 7.53235 9.09855 7.72719 9.19992C7.75578 9.21479 7.78491 9.22878 7.81512 9.24099C8.18608 9.39142 8.59594 9.30008 8.88484 9.00274C9.91705 7.94004 11.246 7.35481 12.6268 7.35481C14.0078 7.35481 15.3367 7.94007 16.3689 9.00274C16.5658 9.20541 16.8188 9.31239 17.0774 9.31239C17.1983 9.31239 17.3204 9.28901 17.4385 9.24112C17.4688 9.22888 17.498 9.21486 17.5266 9.19998C17.7214 9.09862 17.8777 8.93804 17.9807 8.74136Z" fill="#6ABE45"/>
<path d="M17.9037 17.5526C17.9037 18.2585 17.3199 18.8327 16.6022 18.8327H14.5127C14.5385 18.9245 14.5526 19.021 14.5526 19.1207V19.167C14.5526 19.2667 14.5385 19.3632 14.5127 19.455H16.6022C17.6693 19.455 18.5374 18.6015 18.5374 17.5526V16.1294C18.3445 16.2619 18.1315 16.3672 17.9037 16.4395V17.5526Z" fill="#6ABE45"/>
<path d="M14.5965 19.1404C14.5965 19.0393 14.5823 18.9414 14.5561 18.8484C14.4256 18.3838 13.992 18.0415 13.4782 18.0415H12.6125C11.9958 18.0415 11.4941 18.5345 11.4941 19.1404V19.1874C11.4941 19.7933 11.9958 20.2863 12.6125 20.2863H13.4782C13.992 20.2863 14.4256 19.944 14.5561 19.4794C14.5823 19.3864 14.5965 19.2885 14.5965 19.1874V19.1404Z" fill="#6ABE45"/>
<path d="M5.63704 13.8465C5.6292 13.9273 5.625 14.0093 5.625 14.0923C5.625 15.3506 6.55019 16.3917 7.74208 16.5449C7.73265 16.4913 7.72746 16.4363 7.72746 16.38V11.8045C7.72746 11.7483 7.73265 11.6932 7.74208 11.6396C7.22189 11.7065 6.75279 11.9423 6.38899 12.2918C5.97418 12.6904 5.6963 13.2359 5.63704 13.8465ZM18.8637 12.2918C18.4999 11.9423 18.0307 11.7065 17.5106 11.6396C17.52 11.6932 17.5252 11.7483 17.5252 11.8045V16.38C17.5252 16.4362 17.52 16.4913 17.5106 16.5449C17.658 16.5259 17.8015 16.4938 17.9395 16.449C18.1684 16.3746 18.3825 16.2662 18.5764 16.1298C19.2108 15.6835 19.6277 14.9368 19.6277 14.0923C19.6277 14.0094 19.6235 13.9274 19.6156 13.8465C19.5564 13.2359 19.2785 12.6904 18.8637 12.2918Z" fill="#6ABE45"/>
<path d="M7.72266 16.3578C7.72266 16.4135 7.72785 16.468 7.73729 16.5211C7.81522 16.9593 8.20069 17.2933 8.66338 17.2933H8.72167C9.24038 17.2933 9.66239 16.8737 9.66239 16.3578V11.8271C9.66239 11.3113 9.24038 10.8916 8.72167 10.8916H8.66338C8.20069 10.8916 7.81522 11.2256 7.73729 11.6639C7.72785 11.7169 7.72266 11.7714 7.72266 11.8271V16.3578ZM17.5329 11.8271C17.5329 11.7714 17.5277 11.7169 17.5183 11.6639C17.4404 11.2256 17.0549 10.8916 16.5922 10.8916H16.5339C16.0152 10.8916 15.5932 11.3113 15.5932 11.8271V16.3578C15.5932 16.8737 16.0152 17.2933 16.5339 17.2933H16.5922C17.0549 17.2933 17.4403 16.9593 17.5183 16.5211C17.5277 16.468 17.5329 16.4136 17.5329 16.3578V11.8271Z" fill="#6ABE45"/>
</svg>
