<svg width="18" height="18" viewBox="0 0 18 18" fill="none" xmlns="http://www.w3.org/2000/svg">
<circle cx="9" cy="9" r="9" fill="#1C2022"/>
<path d="M5.22917 13H12.7708C12.8958 13 13 12.8961 13 12.7714V12.2104H5V12.7714C5 12.9169 5.10417 13 5.22917 13ZM13.375 6.35065C13.0208 6.35065 12.75 6.62078 12.75 6.97403C12.75 7.14026 12.8125 7.30649 12.9375 7.41039L11.0625 9.32208L9.29167 6.16364C9.47917 6.05974 9.60417 5.85195 9.60417 5.62338C9.60417 5.27013 9.33333 5 8.97917 5C8.625 5 8.35417 5.27013 8.35417 5.62338C8.35417 5.85195 8.47917 6.05974 8.66667 6.16364L6.89583 9.32208L5.02083 7.41039C5.1875 7.30649 5.25 7.14026 5.25 6.97403C5.25 6.62078 4.97917 6.35065 4.625 6.35065C4.27083 6.35065 4 6.62078 4 6.97403C4 7.32727 4.27083 7.5974 4.625 7.5974C4.64583 7.5974 4.66667 7.5974 4.66667 7.5974L5 11.8364H13L13.3333 7.5974C13.3542 7.5974 13.375 7.5974 13.375 7.5974C13.7292 7.5974 14 7.32727 14 6.97403C14 6.64156 13.7292 6.35065 13.375 6.35065Z" fill="#FFB800"/>
</svg>
